# xmcd
#
# Track frame offsets:
#	150
#	10590
#	20772
#	33632
#	45292
#	55637
#	66180
#	78957
#	92542
#	101392
#	114260
#	121935
#	134687
#	147187
#	157997
#	170337
#	181935
#	193107
#	205292
#	217412
#
# Disc length: 3051
#
# Revision: 1
# Processed by: cddbd v1.5.1PL0 Copyright (c) Steve Scherf et al.
# Submitted via: dBpowerAMP V4.0
# Normalized: r0:TDELIM( - )
#
DISCID=0d0be914
DTITLE=Various Artist - The Irish Showband Collection Disc3
DYEAR=1900
DGENRE=Country
TTITLE0=Born To Be With You - Butch Moore and the Capitol
TTITLE1=Together Again - Brendan O'Brien and the Dixies
TTITLE2=If I Could Choose - Sean Dunphy
TTITLE3=I Get So Excited - Real McCoy
TTITLE4=There's Always Me - Dickie Rock and the Miami
TTITLE5=Edelweiss - Tony Keeling and the Graduates
TTITLE6=Carlingford Bay - Patricia O'Kelly and the Hiltons
TTITLE7=We Could - Sonny Knowles and the Pacific
TTITLE8=La Yenka - Derek Dean and the Freshmen
TTITLE9=Treat Me Daughter Kindly - Pat Lynch and the Airchords
TTITLE10=Bucks Polka - Clem Quinn and the Miami
TTITLE11=Distant Drums - Sean Fagan and the Pacific
TTITLE12=At The Close Of A Long Long day - Gregory and the Cadets
TTITLE13=Far Away From You - Doc Carroll and the Royal Blues
TTITLE14=If I Had My Life To Live Over - Eileen Reid and the Cadets
TTITLE15=Katies Kisses - Brendan O'Brien and the Dixies
TTITLE16=So Many Ways - Butch Moore and the Capitol
TTITLE17=The Answer To Everything - Joe Dolan and the Drifters
TTITLE18=Winter Winds - Joe Doherty, Michael Conn and the Millionaires
TTITLE19=Round The Gum Tree - The Real McCoy
EXTD=
EXTT0=
EXTT1=
EXTT2=
EXTT3=
EXTT4=
EXTT5=
EXTT6=
EXTT7=
EXTT8=
EXTT9=
EXTT10=
EXTT11=
EXTT12=
EXTT13=
EXTT14=
EXTT15=
EXTT16=
EXTT17=
EXTT18=
EXTT19=
PLAYORDER=
